# xmcd CD database file
#
# Track frame offsets:
#	150
#	17287
#	34262
#	63431
#
# Disc length: 1599 seconds
#
# Revision: 1
# Processed by: cddbd v1.5.2PL0 Copyright (c) Steve Scherf et al.
# Submitted via: CDex 1.51
#
DISCID=27063d04
DTITLE=A Teens - The Abba Generation
DYEAR=1999
DGENRE=Easy Listening
TTITLE0=Mamma Mia
TTITLE1=Dame dame dame
TTITLE2=A Teens Remix
TTITLE3=Ready To Run Video
EXTD=YEAR: 1999
EXTT0=
EXTT1=
EXTT2=
EXTT3=
PLAYORDER=
